<mxfile host="app.diagrams.net" agent="Mozilla/5.0 (Windows NT 10.0; Win64; x64; rv:132.0) Gecko/20100101 Firefox/132.0" version="24.8.3">
  <diagram name="Page-1" id="1Q-Lw_ZOnqIO_KKdkwqz">
    <mxGraphModel grid="1" page="1" gridSize="10" guides="1" tooltips="1" connect="1" arrows="1" fold="1" pageScale="1" pageWidth="850" pageHeight="1100" math="0" shadow="0">
      <root>
        <mxCell id="0" />
        <mxCell id="1" parent="0" />
        <mxCell id="vYyTAaalu0FOAwD9EvOo-8" value="&lt;p style=&quot;margin:0px;margin-top:4px;margin-left:10px;text-align:left;&quot;&gt;&lt;b&gt;package&lt;/b&gt; flowershop   [ flowershop_top_level ]&lt;/p&gt;" style="html=1;shape=mxgraph.sysml.package;align=left;spacingLeft=5;verticalAlign=top;spacingTop=-3;labelX=268.44;html=1;overflow=fill;" vertex="1" parent="1">
          <mxGeometry x="-550" y="80" width="760" height="430" as="geometry" />
        </mxCell>
        <mxCell id="vYyTAaalu0FOAwD9EvOo-1" value="«component»&lt;br&gt;&lt;b&gt;flowershop&lt;/b&gt;" style="html=1;dropTarget=0;whiteSpace=wrap;verticalAlign=top;" vertex="1" parent="1">
          <mxGeometry x="-390" y="120" width="465" height="310" as="geometry" />
        </mxCell>
        <mxCell id="vYyTAaalu0FOAwD9EvOo-2" value="" style="shape=module;jettyWidth=8;jettyHeight=4;" vertex="1" parent="vYyTAaalu0FOAwD9EvOo-1">
          <mxGeometry x="1" width="20" height="20" relative="1" as="geometry">
            <mxPoint x="-27" y="7" as="offset" />
          </mxGeometry>
        </mxCell>
        <mxCell id="vYyTAaalu0FOAwD9EvOo-45" style="edgeStyle=orthogonalEdgeStyle;rounded=0;orthogonalLoop=1;jettySize=auto;html=1;exitX=1;exitY=0.25;exitDx=0;exitDy=0;entryX=0;entryY=0.25;entryDx=0;entryDy=0;dashed=1;endArrow=open;endFill=0;" edge="1" parent="1" source="vYyTAaalu0FOAwD9EvOo-6" target="vYyTAaalu0FOAwD9EvOo-31">
          <mxGeometry relative="1" as="geometry">
            <Array as="points">
              <mxPoint x="-160" y="177" />
              <mxPoint x="-160" y="185" />
            </Array>
          </mxGeometry>
        </mxCell>
        <mxCell id="vYyTAaalu0FOAwD9EvOo-46" style="edgeStyle=orthogonalEdgeStyle;rounded=0;orthogonalLoop=1;jettySize=auto;html=1;exitX=1.006;exitY=0.811;exitDx=0;exitDy=0;entryX=0;entryY=0.25;entryDx=0;entryDy=0;dashed=1;endArrow=open;endFill=0;exitPerimeter=0;" edge="1" parent="1" source="vYyTAaalu0FOAwD9EvOo-6" target="vYyTAaalu0FOAwD9EvOo-29">
          <mxGeometry relative="1" as="geometry" />
        </mxCell>
        <mxCell id="vYyTAaalu0FOAwD9EvOo-47" style="edgeStyle=orthogonalEdgeStyle;rounded=0;orthogonalLoop=1;jettySize=auto;html=1;exitX=1;exitY=0.5;exitDx=0;exitDy=0;entryX=0;entryY=0.25;entryDx=0;entryDy=0;dashed=1;endArrow=open;endFill=0;" edge="1" parent="1" source="vYyTAaalu0FOAwD9EvOo-6" target="vYyTAaalu0FOAwD9EvOo-35">
          <mxGeometry relative="1" as="geometry">
            <Array as="points">
              <mxPoint x="-255" y="185" />
              <mxPoint x="-255" y="200" />
              <mxPoint x="-150" y="200" />
              <mxPoint x="-150" y="325" />
            </Array>
          </mxGeometry>
        </mxCell>
        <mxCell id="vYyTAaalu0FOAwD9EvOo-51" style="edgeStyle=orthogonalEdgeStyle;rounded=0;orthogonalLoop=1;jettySize=auto;html=1;exitX=1;exitY=0.75;exitDx=0;exitDy=0;entryX=0.25;entryY=0;entryDx=0;entryDy=0;dashed=1;endArrow=open;endFill=0;" edge="1" parent="1" source="vYyTAaalu0FOAwD9EvOo-6" target="vYyTAaalu0FOAwD9EvOo-33">
          <mxGeometry relative="1" as="geometry">
            <Array as="points">
              <mxPoint x="-380" y="260" />
              <mxPoint x="-330" y="260" />
              <mxPoint x="-330" y="300" />
              <mxPoint x="-258" y="300" />
            </Array>
          </mxGeometry>
        </mxCell>
        <mxCell id="vYyTAaalu0FOAwD9EvOo-6" value="" style="whiteSpace=wrap;html=1;aspect=fixed;" vertex="1" parent="1">
          <mxGeometry x="-410" y="170" width="30" height="30" as="geometry" />
        </mxCell>
        <mxCell id="vYyTAaalu0FOAwD9EvOo-9" value="Mrs. Rosa Floris" style="text;html=1;align=center;verticalAlign=middle;whiteSpace=wrap;rounded=0;" vertex="1" parent="1">
          <mxGeometry x="-530" y="170" width="120" height="30" as="geometry" />
        </mxCell>
        <mxCell id="vYyTAaalu0FOAwD9EvOo-49" style="edgeStyle=orthogonalEdgeStyle;rounded=0;orthogonalLoop=1;jettySize=auto;html=1;exitX=1;exitY=0.75;exitDx=0;exitDy=0;entryX=0;entryY=0.5;entryDx=0;entryDy=0;dashed=1;endArrow=open;endFill=0;" edge="1" parent="1" source="vYyTAaalu0FOAwD9EvOo-10" target="vYyTAaalu0FOAwD9EvOo-33">
          <mxGeometry relative="1" as="geometry">
            <Array as="points">
              <mxPoint x="-380" y="370" />
            </Array>
          </mxGeometry>
        </mxCell>
        <mxCell id="vYyTAaalu0FOAwD9EvOo-10" value="" style="whiteSpace=wrap;html=1;aspect=fixed;" vertex="1" parent="1">
          <mxGeometry x="-410" y="350" width="30" height="30" as="geometry" />
        </mxCell>
        <mxCell id="vYyTAaalu0FOAwD9EvOo-11" value="Rosas Niece" style="text;html=1;align=center;verticalAlign=middle;whiteSpace=wrap;rounded=0;" vertex="1" parent="1">
          <mxGeometry x="-520" y="350" width="110" height="30" as="geometry" />
        </mxCell>
        <mxCell id="vYyTAaalu0FOAwD9EvOo-29" value="«component»&lt;br&gt;&lt;b&gt;Finances&lt;/b&gt;" style="html=1;dropTarget=0;whiteSpace=wrap;verticalAlign=top;" vertex="1" parent="1">
          <mxGeometry x="-290" y="220" width="130" height="60" as="geometry" />
        </mxCell>
        <mxCell id="vYyTAaalu0FOAwD9EvOo-30" value="" style="shape=module;jettyWidth=8;jettyHeight=4;" vertex="1" parent="vYyTAaalu0FOAwD9EvOo-29">
          <mxGeometry x="1" width="20" height="20" relative="1" as="geometry">
            <mxPoint x="-27" y="7" as="offset" />
          </mxGeometry>
        </mxCell>
        <mxCell id="vYyTAaalu0FOAwD9EvOo-31" value="«component»&lt;br&gt;&lt;b&gt;Storage&lt;/b&gt;" style="html=1;dropTarget=0;whiteSpace=wrap;verticalAlign=top;" vertex="1" parent="1">
          <mxGeometry x="-90" y="170" width="130" height="60" as="geometry" />
        </mxCell>
        <mxCell id="vYyTAaalu0FOAwD9EvOo-32" value="" style="shape=module;jettyWidth=8;jettyHeight=4;" vertex="1" parent="vYyTAaalu0FOAwD9EvOo-31">
          <mxGeometry x="1" width="20" height="20" relative="1" as="geometry">
            <mxPoint x="-27" y="7" as="offset" />
          </mxGeometry>
        </mxCell>
        <mxCell id="vYyTAaalu0FOAwD9EvOo-33" value="«component»&lt;br&gt;&lt;b&gt;Service&lt;/b&gt;" style="html=1;dropTarget=0;whiteSpace=wrap;verticalAlign=top;" vertex="1" parent="1">
          <mxGeometry x="-290" y="340" width="130" height="60" as="geometry" />
        </mxCell>
        <mxCell id="vYyTAaalu0FOAwD9EvOo-34" value="" style="shape=module;jettyWidth=8;jettyHeight=4;" vertex="1" parent="vYyTAaalu0FOAwD9EvOo-33">
          <mxGeometry x="1" width="20" height="20" relative="1" as="geometry">
            <mxPoint x="-27" y="7" as="offset" />
          </mxGeometry>
        </mxCell>
        <mxCell id="vYyTAaalu0FOAwD9EvOo-35" value="«component»&lt;br&gt;&lt;b&gt;Sales&lt;/b&gt;" style="html=1;dropTarget=0;whiteSpace=wrap;verticalAlign=top;" vertex="1" parent="1">
          <mxGeometry x="-90" y="310" width="130" height="60" as="geometry" />
        </mxCell>
        <mxCell id="vYyTAaalu0FOAwD9EvOo-36" value="" style="shape=module;jettyWidth=8;jettyHeight=4;" vertex="1" parent="vYyTAaalu0FOAwD9EvOo-35">
          <mxGeometry x="1" width="20" height="20" relative="1" as="geometry">
            <mxPoint x="-27" y="7" as="offset" />
          </mxGeometry>
        </mxCell>
      </root>
    </mxGraphModel>
  </diagram>
</mxfile>
